<?xml version="1.0" encoding="UTF-8"?>
<svg version="1.1" viewBox="0 0 2000 2000" width="1280" height="1280" xmlns="http://www.w3.org/2000/svg">
<path transform="translate(1027,149)" d="m0 0 4 1 48 48 8 7 147 147 8 7 63 63 8 7 2 3-1 4-9 10-9 9-5-1-5-4v-2l-3-1-7-8-10-10v-2l-4-2-137-137-3-2v-2l-4-2-64-64v-2l-4-2-5-6-7-6-4-5-3-2-5 1-10 9-79 79-8 7-39 39-1 2h-2l-2 4h-2l-2 4-86 86-8 10 3 5 4 5 8 7 19 19 7 8 129 129v2l4 2 28 28v2l3 1 25 25v2l3 1 5 6 171 171 7 8 22 22 3 2v2l4 2v2l4 2 12 13 106 106 7 8 12 13 22 28 14 20 15 24 12 22 10 21 11 29 11 31 9 35 5 30 2 19 1 17v33l-2 33-4 33-6 29-7 25-12 36-10 25-11 23-13 23-16 24-10 13-12 16-13 15-12 13-18 18-8 7-14 12-19 14-19 13-25 15-24 13-31 14-36 13-28 8-29 6-29 4-35 3h-39l-45-4-31-5-30-8-27-9-25-10-26-12-18-10-20-12-15-10-17-12-17-14-14-12-25-25-7-8-10-11-8-10-15-20-13-20-12-20-9-16-16-36-11-29-11-38-7-36-4-33-1-16v-55l3-21 5-26 5-25 11-36 12-31 15-33 11-20 16-26 10-14 12-16 12-14 11-12 7-8 183-183 2-3h2l2-4h2l2-4h2l2-4h2l2-4 20-20h2v-2l8-7 27-27 7-8 15-15 6 1 8 8 6 8-2 4-12 13-193 193-1 2h-2v2h-2v2h-2l-2 4-77 77-9 11-10 13-10 15-14 22-11 19-12 23-8 18-12 34-10 37-6 30-2 28v48l3 35 7 36 9 34 9 26 10 23 8 16 12 23 12 19 8 12 10 14 13 17 11 13 9 10 25 25 11 9 13 11 13 10 14 10 25 15 20 11 36 16 25 9 20 6 39 8 15 2 13 1h70l20-2 37-7 28-7 30-10 29-13 22-11 21-12 18-12 18-13 11-9 14-12 9-9 8-7 13-13 7-8 10-11 12-16 10-15 15-23 13-22 12-27 14-38 7-25 6-29 4-32 2-26v-29l-2-28-4-32-6-33-6-21-15-41-16-33-13-23-12-18-11-16-9-12-9-11-11-12-4-4v-2h-2l-7-8-75-75-8-7-253-253-8-7-15-15-5-6-6-5-7-8-195-195-3-2v-2l-4-2-6-7 1-5 7-8 7-7 8-7 101-101h2l2-4 12-12h2l2-4 4-4h2l2-4h2l2-4h2l2-4h2l1-3 8-7 82-82h2l2-4z" fill="#062133"/>
<path transform="translate(712,462)" d="m0 0 4 1 5 6 5 5 5 6-1 5-14 14-7 8-40 40-8 7-2 3h-2v2l-4 4h-2v2h-2l-2 4-149 149-1 2h-2l-2 4-121 121-7 8-11 11-7 8-32 32h-2v2l-8 7-18 18-9 11-4 6 2 1 227 1 109 1 2 1 1 3v25l-104 1-239 1 4 6 12 13 41 41 6 5 7 8 22 22 7 8 58 58 7 8 100 100 5 8 1 10-2 18-2 6-4-2-58-58-8-7-11-12-94-94-8-7-138-138-4-6 2-5 7-8 59-59 7-8 132-132 1-2h2l2-4 100-100 3-4h2l2-4 161-161 2-3h2l2-4 7-8z" fill="#062134"/>
<path transform="translate(1338,461)" d="m0 0 4 1 8 7 14 14 7 8 13 13 7 8 22 22 8 7 31 31 7 8 37 37 8 7 33 33v2h2l7 8 35 35 8 7 26 26 7 8 43 43 8 7 28 28 7 8 7 6 6 7 28 28 6 5 7 8 77 77 4 6-2 5-4 5-8 7-43 43-1 2h-2l-2 4h-2l-2 4h-2v2l-5 4-1 2h-2v2l-8 7-110 110h-2v2h-2v2l-8 7-55 55-1 2h-2l-2 4-18 18h-2v2l-17 17-7 8-16 16-3-3-3-11-1-13 1-9 8-10 13-13 7-8 26-26 8-7 50-50 7-8 27-27h2l2-4 15-14 8-8 7-8 109-109-2-4-15-15v-2l-3-1-7-8-18-18-7-6-7-8-19-19-7-8-69-69-7-8-135-135-7-8-67-67-8-7-11-12-12-12-5-4-10-10v-2h-2v-2h-2l-7-8-51-51-1-5 12-13z" fill="#062234"/>
<path transform="translate(1335,1120)" d="m0 0 5 5 11 15 12 20 13 29 6 14 11 34 6 26 5 27 2 22v52l-4 31-7 36-7 24-7 20-11 25-11 22-10 17-13 19-10 13-12 14-8 9-7 8-9 9-11 9-10 9-19 14-13 9-15 9-18 10-22 11-30 11-25 7-29 6-37 5-18 1h-16l-31-2-29-4-27-6-26-8-22-8-16-7-19-10-23-13-19-13-12-9-11-9-10-9-12-12-10-13-16-21-2-3 4 2 10 10 3 2v2l4 2 5 5v2l4 2 10 10 17 13 15 10 17 10 18 10 31 13 23 8 21 6 27 5 30 4 12 1h40l32-4 29-5 23-6 30-10 24-11 16-8 16-9 22-15 12-9 10-8 13-11 12-11 9-9 7-8 11-13 9-11 10-14 11-17 12-21 10-19 10-26 8-26 7-31 4-25 2-21v-59l-3-25-6-33-7-26-11-30-7-16-13-23z" fill="#75CDF0"/>
<path transform="translate(742,1565)" d="m0 0 4 2 10 10 3 2v3l-3 1-9-11z" fill="#376C86"/>
<path transform="translate(1335,1120)" d="m0 0 5 5 10 14-1 2-6-5-8-14z" fill="#3C7590"/>
<path transform="translate(1334,1118)" d="m0 0" fill="#76CEF1"/>
</svg>
